<svg width="64" height="36" viewBox="0 0 64 36" fill="none" xmlns="http://www.w3.org/2000/svg">
<g clip-path="url(#clip0_1591_224)">
<path d="M5.48438 13.362H7.7193L6.60184 10.5176L5.48438 13.362Z" fill="#2FABF7"/>
<path d="M33.2194 10.9239C33.0163 10.8223 32.7115 10.8223 32.4067 10.8223H30.375V12.4477H32.4067C32.7115 12.4477 33.0163 12.4477 33.2194 12.3461C33.4226 12.2445 33.5242 11.9397 33.5242 11.635C33.6258 11.2286 33.4226 11.0254 33.2194 10.9239Z" fill="#228FE0"/>
<path d="M54.9587 7.87695V9.096L54.3492 7.87695H49.5746V9.096L48.9651 7.87695H42.4635C41.346 7.87695 40.4317 8.08013 39.619 8.48648V7.87695H35.0476V8.48648C34.5397 8.08013 33.9302 7.87695 33.1175 7.87695H16.7619L15.6444 10.4166L14.527 7.87695H9.34603V9.096L8.73651 7.87695H4.36825L2.33651 12.6516L0 17.9341H2.33651H5.18095L5.79048 16.3087H7.2127L7.82222 17.9341H13.7143V16.715L14.2222 17.9341H17.1683L17.6762 16.715V17.9341H31.7968V15.2928H32C32.2032 15.2928 32.2032 15.2928 32.2032 15.5976V17.8325H39.5175V17.223C40.127 17.5277 41.0413 17.8325 42.2603 17.8325H45.3079L45.9175 16.2071H47.3397L47.9492 17.8325H53.8413V16.3087L54.7556 17.8325H59.5302V7.87695H54.9587ZM20.6222 16.4103H18.8952V10.823L16.4571 16.4103H14.9333L12.4952 10.823V16.4103H9.04127L8.33016 14.8865H4.87619L4.26667 16.5119H2.33651L5.38413 9.29918H7.92381L10.7683 16.1055V9.29918H13.5111L15.746 14.1754L17.7778 9.29918H20.6222V16.4103ZM27.5302 10.823H23.5683V12.1436H27.4286V13.5658H23.5683V14.9881H27.5302V16.5119H21.8413V9.29918H27.5302V10.823ZM35.1492 13.769C35.3524 14.1754 35.454 14.4801 35.454 15.0897V16.5119H33.727V15.5976C33.727 15.1912 33.727 14.5817 33.4222 14.1754C33.1175 13.8706 32.8127 13.8706 32.2032 13.8706H30.3746V16.5119H28.6476V9.29918H32.5079C33.4222 9.29918 34.0317 9.29918 34.5397 9.60394C35.0476 9.9087 35.3524 10.4166 35.3524 11.2293C35.3524 12.3468 34.6413 12.9563 34.1333 13.1595C34.6413 13.2611 34.946 13.5658 35.1492 13.769ZM38.1968 16.4103H36.4698V9.19759H38.1968V16.4103ZM58.2095 16.4103H55.7714L52.5206 11.0262V16.4103H49.0667L48.4571 14.8865H44.9016L44.2921 16.5119H42.3619C41.5492 16.5119 40.5333 16.3087 39.9238 15.6992C39.3143 15.0897 39.0095 14.277 39.0095 12.9563C39.0095 11.9404 39.2127 10.9246 39.9238 10.1119C40.4317 9.50235 41.346 9.29918 42.4635 9.29918H44.0889V10.823H42.4635C41.854 10.823 41.5492 10.9246 41.1429 11.2293C40.8381 11.5341 40.6349 12.1436 40.6349 12.8547C40.6349 13.6674 40.7365 14.1754 41.1429 14.5817C41.4476 14.8865 41.854 14.9881 42.3619 14.9881H43.073L45.4095 9.40076H47.9492L50.7937 16.2071V9.40076H53.3333L56.2794 14.3785V9.40076H58.0064V16.4103H58.2095Z" fill="#0571C1"/>
<path d="M45.5117 13.362H47.8482L46.7308 10.5176L45.5117 13.362Z" fill="#228FE0"/>
<path d="M28.2428 27.9897V22.1992L25.6016 25.0437L28.2428 27.9897Z" fill="#228FE0"/>
<path d="M17.3711 22.9102V24.2308H21.1298V25.653H17.3711V27.1768H21.5362L23.4663 25.0435L21.6378 22.9102H17.3711Z" fill="#2FABF7"/>
<path d="M32.1021 22.9102H29.9688V24.7387H32.2037C32.8132 24.7387 33.2195 24.434 33.2195 23.8244C33.118 23.2149 32.7116 22.9102 32.1021 22.9102Z" fill="#228FE0"/>
<path d="M63.4925 24.6378V20.0664H62.2735H59.2259C58.3116 20.0664 57.6005 20.2696 57.0925 20.6759V20.0664H52.4195C51.7084 20.0664 50.7941 20.2696 50.3878 20.6759V20.0664H42.1592V20.6759C41.5497 20.168 40.4322 20.0664 39.9243 20.0664H34.4386V20.6759C33.9306 20.168 32.7116 20.0664 32.102 20.0664H26.0068L24.5846 21.5902L23.264 20.0664H14.1211V30.022H23.0608L24.483 28.4982L25.8036 30.022H31.2893V27.6855H32.0005C32.7116 27.6855 33.6259 27.6855 34.337 27.3807V30.1236H38.9084V27.4823H39.1116C39.4163 27.4823 39.4163 27.4823 39.4163 27.787V30.1236H53.2322C54.1465 30.1236 55.0608 29.9204 55.5687 29.514V30.1236H59.937C60.8513 30.1236 61.7655 30.022 62.3751 29.6156C63.3909 29.0061 64.0005 27.8886 64.0005 26.568C64.0005 25.8569 63.7973 25.1458 63.4925 24.6378ZM32.0005 26.2632H29.9687V28.7013H26.7179L24.6862 26.3648L22.5528 28.7013H15.8481V21.4886H22.6544L24.6862 23.8251L26.8195 21.4886H32.2036C33.5243 21.4886 35.0481 21.895 35.0481 23.8251C34.9465 25.8569 33.5243 26.2632 32.0005 26.2632ZM42.1592 25.8569C42.3624 26.1616 42.464 26.568 42.464 27.1775V28.5997H40.737V27.6855C40.737 27.2791 40.737 26.568 40.4322 26.2632C40.229 25.9585 39.8227 25.9585 39.2132 25.9585H37.3846V28.5997H35.6576V21.387H39.5179C40.3306 21.387 41.0417 21.387 41.5497 21.6918C42.0576 21.9966 42.464 22.5045 42.464 23.3172C42.464 24.4347 41.7528 25.0442 41.2449 25.2474C41.7528 25.4505 42.0576 25.6537 42.1592 25.8569ZM49.1687 22.9108H45.2068V24.2315H49.0671V25.6537H45.2068V27.0759H49.1687V28.5997H43.4798V21.387H49.1687V22.9108ZM53.4354 28.5997H50.1846V27.0759H53.4354C53.7401 27.0759 53.9433 27.0759 54.1465 26.8728C54.2481 26.7712 54.3497 26.568 54.3497 26.3648C54.3497 26.1616 54.2481 25.9585 54.1465 25.8569C54.0449 25.7553 53.8417 25.6537 53.537 25.6537C51.9116 25.5521 49.9814 25.6537 49.9814 23.4188C49.9814 22.4029 50.5909 21.2855 52.4195 21.2855H55.7719V23.0124H52.6227C52.3179 23.0124 52.1147 23.0124 51.9116 23.114C51.7084 23.2156 51.7084 23.4188 51.7084 23.622C51.7084 23.9267 51.9116 24.0283 52.1147 24.1299C52.3179 24.2315 52.5211 24.2315 52.7243 24.2315H53.6386C54.5528 24.2315 55.1624 24.4347 55.5687 24.841C55.8735 25.1458 56.0767 25.6537 56.0767 26.3648C56.0767 27.8886 55.1624 28.5997 53.4354 28.5997ZM62.1719 27.8886C61.7655 28.295 61.0544 28.5997 60.0386 28.5997H56.7878V27.0759H60.0386C60.3433 27.0759 60.5465 27.0759 60.7497 26.8728C60.8513 26.7712 60.9528 26.568 60.9528 26.3648C60.9528 26.1616 60.8513 25.9585 60.7497 25.8569C60.6481 25.7553 60.4449 25.6537 60.1401 25.6537C58.5148 25.5521 56.5846 25.6537 56.5846 23.4188C56.5846 22.4029 57.1941 21.2855 59.0227 21.2855H62.3751V23.0124H59.3274C59.0227 23.0124 58.8195 23.0124 58.6163 23.114C58.4132 23.2156 58.4132 23.4188 58.4132 23.622C58.4132 23.9267 58.5147 24.0283 58.8195 24.1299C59.0227 24.2315 59.2259 24.2315 59.429 24.2315H60.3433C61.2576 24.2315 61.8671 24.4347 62.2735 24.841C62.3751 24.841 62.3751 24.9426 62.3751 24.9426C62.6798 25.3489 62.7814 25.8569 62.7814 26.3648C62.7814 26.9743 62.5782 27.4823 62.1719 27.8886Z" fill="#0571C1"/>
<path d="M40.3288 23.1153C40.1256 23.0137 39.8209 23.0137 39.5161 23.0137H37.4844V24.6391H39.5161C39.8209 24.6391 40.1256 24.6391 40.3288 24.5375C40.532 24.4359 40.6336 24.1311 40.6336 23.8264C40.7352 23.42 40.532 23.2168 40.3288 23.1153Z" fill="#228FE0"/>
<path d="M33.2194 10.9239C33.0163 10.8223 32.7115 10.8223 32.4067 10.8223H30.375V12.4477H32.4067C32.7115 12.4477 33.0163 12.4477 33.2194 12.3461C33.4226 12.2445 33.5242 11.9397 33.5242 11.635C33.6258 11.2286 33.4226 11.0254 33.2194 10.9239Z" fill="#228FE0"/>
<path d="M45.5117 13.362H47.8482L46.7308 10.5176L45.5117 13.362Z" fill="#228FE0"/>
<path d="M28.2428 27.9897V22.1992L25.6016 25.0437L28.2428 27.9897Z" fill="#228FE0"/>
<path d="M32.1021 22.9102H29.9688V24.7387H32.2037C32.8132 24.7387 33.2195 24.434 33.2195 23.8244C33.118 23.2149 32.7116 22.9102 32.1021 22.9102Z" fill="#228FE0"/>
<path d="M40.3288 23.1153C40.1256 23.0137 39.8209 23.0137 39.5161 23.0137H37.4844V24.6391H39.5161C39.8209 24.6391 40.1256 24.6391 40.3288 24.5375C40.532 24.4359 40.6336 24.1311 40.6336 23.8264C40.7352 23.42 40.532 23.2168 40.3288 23.1153Z" fill="#228FE0"/>
<path d="M31.3909 28.3985L29.9687 26.8747V28.6017H26.6163L24.5846 26.2652L22.3497 28.6017H15.6449V21.4906H22.4513L24.5846 23.8271L25.6005 22.608L23.0608 20.0684H14.1211V30.0239H23.0608L24.5846 28.5001L25.9052 30.0239H31.3909V28.3985Z" fill="#2FABF7"/>
<path d="M20.8254 17.8325L19.5048 16.4103H18.8952V15.8008L17.3714 14.277L16.3556 16.4103H14.9333L12.4952 10.823V16.4103H9.04127L8.33016 14.8865H4.87619L4.16508 16.4103H2.33651L5.38413 9.29918H7.92381L10.7683 16.1055V9.29918H12.2921L10.8698 7.87695H9.34603V9.096L8.8381 7.87695H4.36825L2.33651 12.6516L0 17.8325H2.33651H5.28254L5.89206 16.3087H7.31429L8.0254 17.8325H13.7143V16.6135L14.2222 17.8325H17.1683L17.6762 16.6135V17.8325H20.8254Z" fill="#2FABF7"/>
<path d="M16.1527 13.1586L14.5273 11.5332L15.7464 14.1745L16.1527 13.1586Z" fill="#2FABF7"/>
<path d="M62.377 29.5141C63.2913 28.9046 63.9008 27.8887 64.0024 26.7712L62.5802 25.349C62.6818 25.6538 62.7834 25.9585 62.7834 26.3649C62.7834 26.9744 62.5802 27.4824 62.1738 27.8887C61.7675 28.2951 61.0564 28.5998 60.0405 28.5998H56.7897V27.076H60.0405C60.3453 27.076 60.5484 27.076 60.7516 26.8728C60.8532 26.7712 60.9548 26.5681 60.9548 26.3649C60.9548 26.1617 60.8532 25.9585 60.7516 25.857C60.65 25.7554 60.4469 25.6538 60.1421 25.6538C58.5167 25.5522 56.5865 25.6538 56.5865 23.4189C56.5865 22.403 57.1961 21.4887 58.7199 21.2855L57.6024 20.1681C57.3992 20.2697 57.2976 20.3712 57.1961 20.3712V19.7617H52.523C51.8119 19.7617 50.8976 19.9649 50.4913 20.3712V19.7617H42.1611V20.3712C41.5516 19.8633 40.4342 19.7617 39.9262 19.7617H34.4405V20.3712C33.9326 19.8633 32.7135 19.7617 32.104 19.7617H26.0088L24.5865 21.2855L23.2659 19.7617H22.1484L25.1961 22.8093L26.7199 21.1839H32.104C33.4246 21.1839 34.9484 21.5903 34.9484 23.5204C34.9484 25.5522 33.5262 25.9585 32.0024 25.9585H29.9707V27.4824L31.4945 29.0062V27.4824H32.0024C32.7135 27.4824 33.6278 27.4824 34.3389 27.1776V29.9204H38.9103V27.2792H39.1135C39.4183 27.2792 39.4183 27.2792 39.4183 27.5839V29.9204H53.2342C54.1484 29.9204 55.0627 29.7173 55.5707 29.3109V29.9204H59.9389C60.7516 30.022 61.6659 29.9204 62.377 29.5141ZM42.1611 25.857C42.3643 26.1617 42.4659 26.5681 42.4659 27.1776V28.5998H40.7389V27.6855C40.7389 27.2792 40.7389 26.5681 40.4342 26.2633C40.231 25.9585 39.8246 25.9585 39.2151 25.9585H37.3865V28.5998H35.6595V21.3871H39.5199C40.3326 21.3871 41.0437 21.3871 41.5516 21.6919C42.0596 21.9966 42.4659 22.5046 42.4659 23.3173C42.4659 24.4347 41.7548 25.0443 41.2469 25.2474C41.7548 25.4506 42.0596 25.6538 42.1611 25.857ZM49.1707 22.9109H45.2088V24.2316H49.0691V25.6538H45.2088V27.076H49.1707V28.5998H43.4818V21.3871H49.1707V22.9109ZM53.4373 28.5998H50.1865V27.076H53.4373C53.7421 27.076 53.9453 27.076 54.1484 26.8728C54.25 26.7712 54.3516 26.5681 54.3516 26.3649C54.3516 26.1617 54.25 25.9585 54.1484 25.857C54.0469 25.7554 53.8437 25.6538 53.5389 25.6538C51.9135 25.5522 49.9834 25.6538 49.9834 23.4189C49.9834 22.403 50.5929 21.2855 52.4215 21.2855H55.7738V23.0125H52.6246C52.3199 23.0125 52.1167 23.0125 51.9135 23.1141C51.7103 23.2157 51.7103 23.4189 51.7103 23.622C51.7103 23.9268 51.9135 24.0284 52.1167 24.13C52.3199 24.2316 52.523 24.2316 52.7262 24.2316H53.6405C54.5548 24.2316 55.1643 24.4347 55.5707 24.8411C55.8754 25.1458 56.0786 25.6538 56.0786 26.3649C56.0786 27.8887 55.1643 28.5998 53.4373 28.5998Z" fill="#228FE0"/>
<path d="M58.3125 23.6232C58.3125 23.928 58.4141 24.0295 58.7188 24.1311C58.922 24.2327 59.1252 24.2327 59.3284 24.2327H60.2427C60.8522 24.2327 61.2585 24.3343 61.6649 24.5375L60.1411 23.0137H59.2268C58.922 23.0137 58.7188 23.0137 58.5157 23.1153C58.4141 23.2168 58.3125 23.42 58.3125 23.6232Z" fill="#228FE0"/>
<path d="M54.7578 17.5273L54.961 17.8321H55.0626L54.7578 17.5273Z" fill="#228FE0"/>
<path d="M49.168 11.9395L50.8949 16.1045V13.6664L49.168 11.9395Z" fill="#228FE0"/>
<path d="M31.7983 15.2928H32.0015C32.2046 15.2928 32.2046 15.2928 32.2046 15.5976V17.8325H39.5189V17.223C40.1284 17.5277 41.0427 17.8325 42.2618 17.8325H45.3094L45.9189 16.2071H47.3411L47.9507 17.8325H53.8427V16.8166L52.4205 15.3944V16.5118H48.9665L48.4586 14.8865H44.903L44.2935 16.5118H42.3634C41.5507 16.5118 40.5348 16.3087 39.9253 15.6992C39.3157 15.0896 39.011 14.2769 39.011 12.9563C39.011 11.9404 39.2142 10.9245 39.9253 10.1118C40.4332 9.50233 41.3475 9.29915 42.4649 9.29915H44.0903V10.823H42.4649C41.8554 10.823 41.5507 10.9245 41.1443 11.2293C40.8395 11.5341 40.6364 12.1436 40.6364 12.8547C40.6364 13.6674 40.738 14.1753 41.1443 14.5817C41.4491 14.8865 41.8554 14.988 42.3634 14.988H43.0745L45.411 9.40074H46.4269L45.0046 7.97852H42.3634C41.2459 7.97852 40.3316 8.18169 39.5189 8.58804V7.97852H35.0491V8.58804C34.5411 8.18169 33.9316 7.97852 33.1189 7.97852H16.7634L15.6459 10.5182L14.5284 7.97852H10.0586L11.4808 9.40074H13.5126L15.2395 13.1595L15.8491 13.769L17.6776 9.29915H20.5221V16.5118H18.7951V10.9245L17.0681 14.988L20.0142 17.9341H31.6967L31.7983 15.2928ZM36.4713 9.29915H38.1983V16.5118H36.4713V9.29915ZM27.5316 10.823H23.5697V12.1436H27.43V13.5658H23.5697V14.988H27.5316V16.5118H21.8427V9.29915H27.5316V10.823ZM30.3761 16.4103H28.6491V9.19756H32.5094C33.4237 9.19756 34.0332 9.19756 34.5411 9.50233C35.0491 9.80709 35.3538 10.315 35.3538 11.1277C35.3538 12.2452 34.6427 12.8547 34.1348 13.0579C34.5411 13.1595 34.8459 13.4642 34.9475 13.6674C35.1507 14.0738 35.2522 14.3785 35.2522 14.988V16.4103H33.5253V15.496C33.5253 15.0896 33.5253 14.4801 33.2205 14.0738C33.1189 13.8706 32.8142 13.8706 32.2046 13.8706H30.3761V16.4103Z" fill="#228FE0"/>
</g>
<defs>
<clipPath id="clip0_1591_224">
<rect width="64" height="36" fill="white"/>
</clipPath>
</defs>
</svg>
