<svg width="24" height="24" viewBox="0 0 24 24" fill="none" xmlns="http://www.w3.org/2000/svg">
<path d="M5.584 13.1922L6.18134 13.7896C8.00693 15.6152 9.83252 17.4407 11.6598 19.2681C12.3738 19.9821 12.4067 20.6596 11.7885 21.2743C11.1704 21.8889 10.4884 21.8498 9.77622 21.1394C7.02339 18.3866 4.27027 15.6335 1.51686 12.88C0.825859 12.189 0.828306 11.5133 1.52066 10.8191C4.28772 8.05208 7.05479 5.28501 9.82185 2.51795C10.523 1.81676 11.258 1.83464 11.8739 2.52828C12.3864 3.10969 12.3354 3.75277 11.6951 4.39833C9.86096 6.24314 8.01615 8.07734 6.17575 9.91774L5.58319 10.5103C5.95951 10.5192 6.17417 10.529 6.38794 10.5291C11.26 10.5335 16.1312 10.5364 21.0015 10.5379C21.9635 10.5391 22.5166 10.9933 22.5381 11.7936C22.5622 12.533 22.1038 13.0779 21.3707 13.1607C21.1415 13.1799 20.9115 13.1858 20.6817 13.1782L6.44174 13.1775C6.21913 13.1739 5.99388 13.1835 5.584 13.1922Z" fill="#848484"/>
</svg>
