<svg width="28" height="28" viewBox="0 0 28 28" fill="none" xmlns="http://www.w3.org/2000/svg">
<g clip-path="url(#clip0_1544_2468)">
<path fill-rule="evenodd" clip-rule="evenodd" d="M0 3.05605C0 2.47281 0.477058 2 1.06554 2H4.46934C4.99615 2 5.44388 2.38154 5.52284 2.89776L5.77452 4.5431H26.9345C27.2804 4.5431 27.6048 4.70955 27.8045 4.98951C28.0042 5.26947 28.0544 5.6281 27.939 5.95133L23.8544 17.3953C23.7039 17.8171 23.3014 18.0991 22.8499 18.0991H7.84813L8.10856 19.8017H21.4884C23.5202 19.8017 25.2769 21.3548 25.2769 23.4009C25.2769 25.4469 23.5202 27 21.4884 27C19.4565 27 17.6998 25.4469 17.6998 23.4009C17.6998 22.865 17.8203 22.363 18.0346 21.9138H14.0499C14.2643 22.363 14.3848 22.865 14.3848 23.4009C14.3848 25.4469 12.6281 27 10.5962 27C8.56436 27 6.80761 25.4469 6.80761 23.4009C6.80761 22.8646 6.9283 22.3621 7.143 21.9127C6.63783 21.8897 6.21537 21.516 6.13889 21.016L5.55833 17.2207C5.55629 17.2087 5.55445 17.1967 5.55282 17.1847L3.80775 5.77641C3.80575 5.76469 3.80395 5.7529 3.80234 5.74106L3.55317 4.1121H1.06554C0.477058 4.1121 0 3.63929 0 3.05605ZM6.0976 6.6552L7.52505 15.9871H22.0966L25.4273 6.6552H6.0976ZM10.5962 21.9138C9.62023 21.9138 8.93869 22.6378 8.93869 23.4009C8.93869 24.1639 9.62023 24.8879 10.5962 24.8879C11.5722 24.8879 12.2537 24.1639 12.2537 23.4009C12.2537 22.6378 11.5722 21.9138 10.5962 21.9138ZM21.4884 21.9138C20.5124 21.9138 19.8309 22.6378 19.8309 23.4009C19.8309 24.1639 20.5124 24.8879 21.4884 24.8879C22.4644 24.8879 23.1459 24.1639 23.1459 23.4009C23.1459 22.6378 22.4644 21.9138 21.4884 21.9138Z" fill="#323232"/>
</g>
<defs>
<clipPath id="clip0_1544_2468">
<rect width="28" height="28" fill="white"/>
</clipPath>
</defs>
</svg>
