<svg width="16" height="10" viewBox="0 0 16 10" fill="none" xmlns="http://www.w3.org/2000/svg">
<path fill-rule="evenodd" clip-rule="evenodd" d="M8.37629 8.37629C8.18876 8.56376 7.93445 8.66907 7.66929 8.66907C7.40412 8.66907 7.14982 8.56376 6.96229 8.37629L1.30529 2.71929C1.20978 2.62704 1.1336 2.5167 1.08119 2.39469C1.02878 2.27269 1.00119 2.14147 1.00004 2.00869C0.998884 1.87591 1.02419 1.74423 1.07447 1.62134C1.12475 1.49844 1.199 1.38679 1.29289 1.29289C1.38679 1.199 1.49844 1.12475 1.62133 1.07447C1.74423 1.02419 1.87591 0.998884 2.00869 1.00004C2.14147 1.00119 2.27269 1.02878 2.39469 1.08119C2.5167 1.1336 2.62704 1.20978 2.71929 1.30529L7.66929 6.25529L12.6193 1.30529C12.8079 1.12313 13.0605 1.02234 13.3227 1.02461C13.5849 1.02689 13.8357 1.13206 14.0211 1.31747C14.2065 1.50288 14.3117 1.75369 14.314 2.01589C14.3162 2.27808 14.2154 2.53069 14.0333 2.71929L8.37629 8.37629Z" fill="#1E1E1E"/>
</svg>
