<svg width="33" height="33" viewBox="0 0 33 33" fill="none" xmlns="http://www.w3.org/2000/svg">
<path d="M18.8509 11.002H16.9186C16.9142 11.0019 16.9098 11.0021 16.9054 11.0025C14.9544 11.0087 14.6996 12.3706 14.6986 13.5609C14.6959 13.5722 14.6945 13.5837 14.6945 13.5953V14.431H13.3593C13.3205 14.431 13.2832 14.4464 13.2558 14.4738C13.2283 14.5013 13.2129 14.5385 13.2129 14.5773V16.6381C13.2129 16.677 13.2283 16.7142 13.2558 16.7417C13.2832 16.7691 13.3205 16.7845 13.3593 16.7845H14.6945V21.3068C14.6945 21.3456 14.7099 21.3829 14.7374 21.4103C14.7649 21.4378 14.8021 21.4532 14.8409 21.4532H16.7895C16.8284 21.4532 16.8656 21.4378 16.8931 21.4103C16.9205 21.3829 16.936 21.3456 16.936 21.3068V16.7847H18.8507C18.8896 16.7847 18.9268 16.7693 18.9543 16.7418C18.9818 16.7144 18.9972 16.6771 18.9972 16.6383V14.5775C18.9972 14.5387 18.9818 14.5014 18.9543 14.474C18.9268 14.4465 18.8896 14.4311 18.8507 14.4311H16.7895V13.3233H18.8507C18.8896 13.3233 18.9268 13.3079 18.9543 13.2805C18.9818 13.253 18.9972 13.2158 18.9972 13.1769V11.1484C18.9972 11.1291 18.9934 11.1101 18.9861 11.0923C18.9787 11.0746 18.968 11.0584 18.9544 11.0448C18.9408 11.0312 18.9247 11.0205 18.9069 11.0131C18.8892 11.0057 18.8701 11.002 18.8509 11.002Z" fill="white"/>
<path opacity="0.15" d="M15.796 2.20117C8.30043 2.20117 2.20215 8.29781 2.20215 15.7916C2.20215 23.2856 8.30043 29.382 15.796 29.382C23.2918 29.382 29.3903 23.2856 29.3903 15.7916C29.3901 8.29781 23.2916 2.20117 15.796 2.20117ZM15.796 28.0416C9.03964 28.0416 3.54292 22.5464 3.54292 15.7916C3.54292 9.03704 9.03964 3.54158 15.796 3.54158C22.5524 3.54158 28.0496 9.03704 28.0496 15.7916C28.0493 22.5464 22.5524 28.0416 15.796 28.0416Z" fill="white"/>
</svg>
