<svg width="33" height="33" viewBox="0 0 33 33" fill="none" xmlns="http://www.w3.org/2000/svg">
<path opacity="0.15" d="M16.4928 2.49512C8.99721 2.49512 2.89893 8.59175 2.89893 16.0855C2.89893 23.5796 8.99721 29.676 16.4928 29.676C23.9886 29.676 30.0871 23.5796 30.0871 16.0855C30.0869 8.59175 23.9884 2.49512 16.4928 2.49512ZM16.4928 28.3356C9.73642 28.3356 4.2397 22.8403 4.2397 16.0855C4.2397 9.33099 9.73642 3.83553 16.4928 3.83553C23.2492 3.83553 28.7463 9.33099 28.7463 16.0855C28.7461 22.8403 23.2492 28.3356 16.4928 28.3356Z" fill="white"/>
<path d="M16.6055 12.7716C14.9119 12.7716 13.5087 14.1506 13.5087 15.8684C13.5087 17.5861 14.8877 18.9652 16.6055 18.9652C18.3232 18.9652 19.7022 17.5619 19.7022 15.8684C19.7022 14.1748 18.299 12.7716 16.6055 12.7716ZM16.6055 17.8523C15.5168 17.8523 14.6216 16.9571 14.6216 15.8684C14.6216 14.7797 15.5168 13.8845 16.6055 13.8845C17.6942 13.8845 18.5893 14.7797 18.5893 15.8684C18.5893 16.9571 17.6942 17.8523 16.6055 17.8523Z" fill="white"/>
<path d="M19.8232 13.4006C20.2107 13.4006 20.5248 13.0865 20.5248 12.699C20.5248 12.3115 20.2107 11.9974 19.8232 11.9974C19.4357 11.9974 19.1216 12.3115 19.1216 12.699C19.1216 13.0865 19.4357 13.4006 19.8232 13.4006Z" fill="white"/>
<path d="M21.6377 10.8845C21.0087 10.2313 20.1135 9.89258 19.0974 9.89258H14.1135C12.0087 9.89258 10.6055 11.2958 10.6055 13.4006V18.3603C10.6055 19.4006 10.9442 20.2958 11.6216 20.949C12.2748 21.5781 13.1458 21.8926 14.1377 21.8926H19.0732C20.1135 21.8926 20.9845 21.5539 21.6135 20.949C22.2668 20.32 22.6055 19.4248 22.6055 18.3845V13.4006C22.6055 12.3845 22.2668 11.5135 21.6377 10.8845ZM21.541 18.3845C21.541 19.1345 21.2748 19.7394 20.8393 20.1506C20.4039 20.5619 19.799 20.7797 19.0732 20.7797H14.1377C13.4119 20.7797 12.8071 20.5619 12.3716 20.1506C11.9361 19.7152 11.7184 19.1103 11.7184 18.3603V13.4006C11.7184 12.6748 11.9361 12.07 12.3716 11.6345C12.7829 11.2232 13.4119 11.0055 14.1377 11.0055H19.1216C19.8474 11.0055 20.4522 11.2232 20.8877 11.6587C21.299 12.0942 21.541 12.699 21.541 13.4006V18.3845Z" fill="white"/>
</svg>
