<svg width="33" height="33" viewBox="0 0 33 33" fill="none" xmlns="http://www.w3.org/2000/svg">
<path opacity="0.15" d="M16.2955 2.49512C8.79994 2.49512 2.70166 8.59175 2.70166 16.0855C2.70166 23.5796 8.79994 29.676 16.2955 29.676C23.7913 29.676 29.8899 23.5796 29.8899 16.0855C29.8896 8.59175 23.7911 2.49512 16.2955 2.49512ZM16.2955 28.3356C9.53915 28.3356 4.04243 22.8403 4.04243 16.0855C4.04243 9.33099 9.53915 3.83553 16.2955 3.83553C23.0519 3.83553 28.5491 9.33099 28.5491 16.0855C28.5489 22.8403 23.0519 28.3356 16.2955 28.3356Z" fill="white"/>
<path d="M13.0808 13.1343C13.7265 13.1343 14.2499 12.657 14.2499 12.0681C14.2499 11.4793 13.7265 11.002 13.0808 11.002C12.4351 11.002 11.9116 11.4793 11.9116 12.0681C11.9116 12.657 12.4351 13.1343 13.0808 13.1343Z" fill="white"/>
<path d="M11.9482 14.0957H14.2583V20.1211H11.9482V14.0957Z" fill="white"/>
<path d="M20.0652 13.96C19.5922 13.96 19.1913 14.0461 18.8618 14.2181C18.5326 14.3904 18.2074 14.6768 17.8856 15.0776V14.0961H15.7344V20.1215H18.0445V17.2279C18.0445 16.6794 18.1316 16.2995 18.3057 16.0876C18.4798 15.8758 18.7066 15.7698 18.9867 15.7698C19.2402 15.7698 19.4369 15.8484 19.5771 16.0054C19.7172 16.1624 19.7869 16.4299 19.7869 16.8083V20.1215H22.1085V16.2919C22.1085 15.4976 21.9277 14.9103 21.5662 14.5301C21.2052 14.1499 20.7045 13.96 20.0652 13.96Z" fill="white"/>
</svg>
