<svg width="64" height="64" viewBox="0 0 64 64" fill="none" xmlns="http://www.w3.org/2000/svg">
<path d="M53.2111 26.8829H49.4374V17.4373C49.4374 7.82224 41.6145 0 32 0C22.3849 0 14.5627 7.82224 14.5627 17.4373V26.8829H10.789C10.058 26.8829 9.46484 27.4761 9.46484 28.2071V62.6759C9.46484 63.4068 10.058 64 10.789 64H53.2111C53.942 64 54.5352 63.4068 54.5352 62.6759V28.2071C54.5352 27.4755 53.9434 26.8829 53.2111 26.8829ZM29.1029 49.1248C28.2409 48.3184 27.7655 47.2241 27.7655 46.0423C27.7655 43.7079 29.665 41.8078 32 41.8078C34.3345 41.8078 36.2346 43.7072 36.2346 46.0423C36.2346 47.2241 35.7599 48.3184 34.8972 49.1248C34.6297 49.3751 34.4775 49.7253 34.4775 50.0921V54.5822C34.4775 55.948 33.3659 57.0596 31.9994 57.0596C30.6329 57.0596 29.5213 55.948 29.5213 54.5822V50.0921C29.5219 49.7253 29.3703 49.3751 29.1029 49.1248ZM32 9.39926C36.4319 9.39926 40.0374 13.0048 40.0374 17.4373V26.8829H23.9626V17.4373C23.9626 13.0055 27.5682 9.39926 32 9.39926Z" fill="black"/>
</svg>
