<svg width="97" height="27" viewBox="0 0 97 27" fill="none" xmlns="http://www.w3.org/2000/svg">
<path d="M0.212358 26V0.545454H5.59411V21.5629H16.5067V26H0.212358ZM42.4709 13.2727C42.4709 16.0485 41.9447 18.41 40.8924 20.3572C39.8484 22.3045 38.4232 23.7918 36.6168 24.8192C34.8188 25.8384 32.797 26.348 30.5515 26.348C28.2894 26.348 26.2594 25.8343 24.4613 24.8068C22.6632 23.7794 21.2422 22.292 20.1982 20.3448C19.1541 18.3976 18.6321 16.0402 18.6321 13.2727C18.6321 10.4969 19.1541 8.13542 20.1982 6.18821C21.2422 4.241 22.6632 2.75781 24.4613 1.73864C26.2594 0.711174 28.2894 0.197442 30.5515 0.197442C32.797 0.197442 34.8188 0.711174 36.6168 1.73864C38.4232 2.75781 39.8484 4.241 40.8924 6.18821C41.9447 8.13542 42.4709 10.4969 42.4709 13.2727ZM37.0146 13.2727C37.0146 11.4747 36.7453 9.95833 36.2067 8.72372C35.6764 7.48911 34.9265 6.55279 33.957 5.91477C32.9876 5.27675 31.8524 4.95774 30.5515 4.95774C29.2506 4.95774 28.1154 5.27675 27.146 5.91477C26.1765 6.55279 25.4225 7.48911 24.8839 8.72372C24.3536 9.95833 24.0884 11.4747 24.0884 13.2727C24.0884 15.0708 24.3536 16.5871 24.8839 17.8217C25.4225 19.0563 26.1765 19.9927 27.146 20.6307C28.1154 21.2687 29.2506 21.5877 30.5515 21.5877C31.8524 21.5877 32.9876 21.2687 33.957 20.6307C34.9265 19.9927 35.6764 19.0563 36.2067 17.8217C36.7453 16.5871 37.0146 15.0708 37.0146 13.2727ZM63.336 8.77344C63.162 8.16856 62.9176 7.63411 62.6027 7.1701C62.2879 6.6978 61.9026 6.30007 61.4468 5.97692C60.9994 5.64548 60.4856 5.39276 59.9056 5.21875C59.3339 5.04474 58.7 4.95774 58.004 4.95774C56.7031 4.95774 55.5596 5.28089 54.5736 5.9272C53.5959 6.57351 52.8335 7.51397 52.2867 8.74858C51.7398 9.9749 51.4664 11.4747 51.4664 13.2479C51.4664 15.0211 51.7356 16.5291 52.2742 17.772C52.8128 19.0149 53.5751 19.9637 54.5612 20.6183C55.5472 21.2646 56.7114 21.5877 58.0537 21.5877C59.2718 21.5877 60.3116 21.3723 61.1734 20.9414C62.0434 20.5022 62.7063 19.8849 63.162 19.0895C63.626 18.294 63.858 17.3536 63.858 16.2681L64.9518 16.4297H58.3893V12.3778H69.0409V15.5845C69.0409 17.8217 68.5686 19.7441 67.624 21.3516C66.6794 22.9508 65.3785 24.1854 63.7213 25.0554C62.0641 25.9171 60.1666 26.348 58.0289 26.348C55.6425 26.348 53.5461 25.8219 51.7398 24.7695C49.9334 23.7089 48.5248 22.205 47.5139 20.2578C46.5113 18.3023 46.01 15.9822 46.01 13.2976C46.01 11.2344 46.3083 9.39489 46.9049 7.77912C47.5098 6.15507 48.355 4.77959 49.4404 3.6527C50.5259 2.5258 51.7895 1.6682 53.2313 1.0799C54.673 0.491595 56.2349 0.197442 57.917 0.197442C59.3588 0.197442 60.7011 0.408735 61.944 0.831321C63.1869 1.24562 64.2889 1.83392 65.2501 2.59624C66.2195 3.35855 67.0109 4.26586 67.624 5.31818C68.2372 6.36221 68.6308 7.51397 68.8048 8.77344H63.336ZM96.4748 13.2727C96.4748 16.0485 95.9486 18.41 94.8963 20.3572C93.8523 22.3045 92.4271 23.7918 90.6207 24.8192C88.8227 25.8384 86.8009 26.348 84.5554 26.348C82.2933 26.348 80.2633 25.8343 78.4652 24.8068C76.6671 23.7794 75.2461 22.292 74.2021 20.3448C73.158 18.3976 72.636 16.0402 72.636 13.2727C72.636 10.4969 73.158 8.13542 74.2021 6.18821C75.2461 4.241 76.6671 2.75781 78.4652 1.73864C80.2633 0.711174 82.2933 0.197442 84.5554 0.197442C86.8009 0.197442 88.8227 0.711174 90.6207 1.73864C92.4271 2.75781 93.8523 4.241 94.8963 6.18821C95.9486 8.13542 96.4748 10.4969 96.4748 13.2727ZM91.0185 13.2727C91.0185 11.4747 90.7492 9.95833 90.2106 8.72372C89.6803 7.48911 88.9304 6.55279 87.9609 5.91477C86.9915 5.27675 85.8563 4.95774 84.5554 4.95774C83.2545 4.95774 82.1193 5.27675 81.1499 5.91477C80.1804 6.55279 79.4264 7.48911 78.8878 8.72372C78.3575 9.95833 78.0923 11.4747 78.0923 13.2727C78.0923 15.0708 78.3575 16.5871 78.8878 17.8217C79.4264 19.0563 80.1804 19.9927 81.1499 20.6307C82.1193 21.2687 83.2545 21.5877 84.5554 21.5877C85.8563 21.5877 86.9915 21.2687 87.9609 20.6307C88.9304 19.9927 89.6803 19.0563 90.2106 17.8217C90.7492 16.5871 91.0185 15.0708 91.0185 13.2727Z" fill="white"/>
</svg>
