<svg width="64" height="36" viewBox="0 0 64 36" fill="none" xmlns="http://www.w3.org/2000/svg">
<path d="M56.9953 17.9996C56.9953 26.2534 50.3288 32.9992 41.9957 32.9992C33.7419 32.9992 26.9961 26.2534 26.9961 17.9996C26.9961 9.74586 33.6626 3 41.9163 3C50.3288 3 56.9953 9.74586 56.9953 17.9996Z" fill="#FFB600"/>
<path d="M41.9957 3C50.2495 3 56.9953 9.74586 56.9953 17.9996C56.9953 26.2534 50.3288 32.9992 41.9957 32.9992C33.7419 32.9992 26.9961 26.2534 26.9961 17.9996" fill="#F7981D"/>
<path d="M42 3C50.2538 3 56.9996 9.74586 56.9996 17.9996C56.9996 26.2534 50.3331 32.9992 42 32.9992" fill="#FF8500"/>
<path d="M21.8409 3C13.6665 3.07936 7 9.74586 7 17.9996C7 26.2534 13.6665 32.9992 21.9996 32.9992C25.8884 32.9992 29.3804 31.4913 32.0787 29.1104C32.6343 28.6343 33.1104 28.0787 33.5866 27.5232H30.4915C30.0946 27.047 29.6978 26.4915 29.3804 26.0153H34.6977C35.0151 25.5391 35.3326 24.9836 35.5707 24.428H28.5074C28.2693 23.9518 28.0312 23.3963 27.8725 22.8408H36.1262C36.6024 21.3329 36.9199 19.7456 36.9199 18.079C36.9199 16.9679 36.7611 15.9362 36.6024 14.9045H27.3963C27.4757 14.3489 27.6344 13.8727 27.7931 13.3172H36.0469C35.8881 12.7617 35.65 12.2061 35.412 11.7299H28.428C28.6661 11.1744 28.9836 10.6982 29.301 10.1427H34.6183C34.3009 9.58713 33.9041 9.03159 33.4279 8.55541H30.4915C30.9676 7.99987 31.4438 7.52369 31.9993 7.04751C29.3804 4.58726 25.809 3.15873 21.9202 3.15873C21.9202 3 21.9202 3 21.8409 3Z" fill="#FF5050"/>
<path d="M7 17.9991C7 26.2528 13.6665 32.9987 21.9996 32.9987C25.8884 32.9987 29.3804 31.4908 32.0787 29.1099C32.6343 28.6337 33.1104 28.0782 33.5866 27.5227H30.4915C30.0946 27.0465 29.6978 26.4909 29.3804 26.0148H34.6977C35.0151 25.5386 35.3326 24.983 35.5707 24.4275H28.5074C28.2693 23.9513 28.0312 23.3958 27.8725 22.8402H36.1262C36.6024 21.3323 36.9199 19.7451 36.9199 18.0784C36.9199 16.9674 36.7611 15.9356 36.6024 14.9039H27.3963C27.4757 14.3484 27.6344 13.8722 27.7931 13.3167H36.0469C35.8881 12.7611 35.65 12.2056 35.412 11.7294H28.428C28.6661 11.1739 28.9836 10.6977 29.301 10.1421H34.6183C34.3009 9.58661 33.9041 9.03107 33.4279 8.55489H30.4915C30.9676 7.99935 31.4438 7.52317 31.9993 7.04699C29.3804 4.58674 25.809 3.1582 21.9202 3.1582H21.8409" fill="#E52836"/>
<path d="M21.9986 32.9987C25.8874 32.9987 29.3793 31.4908 32.0777 29.1099C32.6332 28.6337 33.1094 28.0782 33.5856 27.5227H30.4904C30.0936 27.0465 29.6968 26.4909 29.3793 26.0148H34.6967C35.0141 25.5386 35.3316 24.983 35.5696 24.4275H28.5063C28.2682 23.9513 28.0302 23.3958 27.8714 22.8402H36.1252C36.6014 21.3323 36.9188 19.7451 36.9188 18.0784C36.9188 16.9674 36.7601 15.9356 36.6014 14.9039H27.3953C27.4746 14.3484 27.6333 13.8722 27.7921 13.3167H36.0458C35.8871 12.7611 35.649 12.2056 35.4109 11.7294H28.427C28.6651 11.1739 28.9825 10.6977 29.3 10.1421H34.6173C34.2998 9.58661 33.903 9.03107 33.4268 8.55489H30.4904C30.9666 7.99935 31.4428 7.52317 31.9983 7.04699C29.3793 4.58674 25.808 3.1582 21.9192 3.1582H21.8398" fill="#CB2026"/>
<path d="M27.3172 21.8082L27.5552 20.459C27.4759 20.459 27.3172 20.5384 27.1584 20.5384C26.6029 20.5384 26.5235 20.2209 26.6029 20.0622L27.0791 17.2845H27.9521L28.1901 15.7766H27.3965L27.5552 14.8242H25.968C25.968 14.8242 25.0156 20.0622 25.0156 20.6971C25.0156 21.6494 25.5712 22.0463 26.2854 22.0463C26.7616 22.0463 27.1584 21.8875 27.3172 21.8082Z" fill="white"/>
<path d="M27.8711 19.2689C27.8711 21.491 29.379 22.0466 30.6488 22.0466C31.8392 22.0466 32.3154 21.8085 32.3154 21.8085L32.6329 20.3006C32.6329 20.3006 31.7599 20.6974 30.9663 20.6974C29.2203 20.6974 29.5377 19.4276 29.5377 19.4276H32.7916C32.7916 19.4276 33.0297 18.3959 33.0297 17.9991C33.0297 16.9674 32.4741 15.6975 30.7282 15.6975C29.0615 15.5388 27.8711 17.2848 27.8711 19.2689ZM30.6488 16.9674C31.5218 16.9674 31.3631 17.9991 31.3631 18.0784H29.6171C29.6171 17.9991 29.7758 16.9674 30.6488 16.9674Z" fill="white"/>
<path d="M40.7322 21.8076L41.0496 20.0616C41.0496 20.0616 40.256 20.4584 39.7004 20.4584C38.5894 20.4584 38.1132 19.5854 38.1132 18.6331C38.1132 16.7284 39.0655 15.6966 40.1766 15.6966C40.9702 15.6966 41.6051 16.1728 41.6051 16.1728L41.8432 14.5062C41.8432 14.5062 40.8909 14.1094 40.0179 14.1094C38.1925 14.1094 36.3672 15.6966 36.3672 18.7124C36.3672 20.6965 37.3195 22.0457 39.2243 22.0457C39.8592 22.0457 40.7322 21.8076 40.7322 21.8076Z" fill="white"/>
<path d="M18.5861 15.541C17.475 15.541 16.6814 15.8585 16.6814 15.8585L16.4433 17.2076C16.4433 17.2076 17.1576 16.8902 18.1893 16.8902C18.7448 16.8902 19.221 16.9695 19.221 17.4457C19.221 17.7632 19.1416 17.8425 19.1416 17.8425C19.1416 17.8425 18.6655 17.8425 18.4274 17.8425C17.0782 17.8425 15.5703 18.3981 15.5703 20.2234C15.5703 21.652 16.5227 21.9694 17.0782 21.9694C18.1893 21.9694 18.6655 21.2552 18.7448 21.2552L18.6655 21.8901H20.094L20.7289 17.5251C20.7289 15.6204 19.1416 15.541 18.5861 15.541ZM18.9036 19.1124C18.9036 19.3504 18.7448 20.6202 17.7925 20.6202C17.3163 20.6202 17.1576 20.2234 17.1576 19.9853C17.1576 19.5885 17.3957 19.033 18.5861 19.033C18.8242 19.1124 18.9036 19.1124 18.9036 19.1124Z" fill="white"/>
<path d="M22.2433 21.9668C22.6401 21.9668 24.6242 22.0461 24.6242 19.9033C24.6242 17.9192 22.7195 18.3161 22.7195 17.5224C22.7195 17.1256 23.0369 16.9669 23.5925 16.9669C23.8306 16.9669 24.7036 17.0462 24.7036 17.0462L24.9417 15.6177C24.9417 15.6177 24.3861 15.459 23.4338 15.459C22.2433 15.459 21.0529 15.9352 21.0529 17.5224C21.0529 19.3478 23.0369 19.189 23.0369 19.9033C23.0369 20.3795 22.4814 20.4589 22.0846 20.4589C21.3703 20.4589 20.6561 20.2208 20.6561 20.2208L20.418 21.6493C20.4973 21.808 20.8941 21.9668 22.2433 21.9668Z" fill="white"/>
<path d="M53.9065 14.2676L53.5891 16.4104C53.5891 16.4104 52.9541 15.6168 52.0812 15.6168C50.6526 15.6168 49.3828 17.3627 49.3828 19.4262C49.3828 20.696 50.0177 22.0452 51.3669 22.0452C52.3192 22.0452 52.8748 21.4102 52.8748 21.4102L52.7954 21.9658H54.3827L55.5731 14.3469L53.9065 14.2676ZM53.1922 18.4738C53.1922 19.3468 52.7954 20.4579 51.9224 20.4579C51.3669 20.4579 51.0494 19.9817 51.0494 19.1881C51.0494 17.9183 51.605 17.1246 52.3192 17.1246C52.8748 17.1246 53.1922 17.5215 53.1922 18.4738Z" fill="white"/>
<path d="M9.93758 21.8864L10.8899 16.1723L11.0487 21.8864H12.1597L14.2232 16.1723L13.3502 21.8864H15.0168L16.2866 14.2676H13.6676L12.0804 18.95L12.001 14.2676H9.6995L8.42969 21.8864H9.93758Z" fill="white"/>
<path d="M34.539 21.8895C35.0151 19.2706 35.0945 17.1278 36.2056 17.5246C36.3643 16.4928 36.6024 16.096 36.7611 15.6992C36.7611 15.6992 36.6818 15.6992 36.4437 15.6992C35.7294 15.6992 35.1739 16.6516 35.1739 16.6516L35.3326 15.7786H33.8247L32.793 21.9689H34.539V21.8895Z" fill="white"/>
<path d="M44.3791 15.541C43.268 15.541 42.4744 15.8585 42.4744 15.8585L42.2363 17.2076C42.2363 17.2076 42.9505 16.8902 43.9823 16.8902C44.5378 16.8902 45.014 16.9695 45.014 17.4457C45.014 17.7632 44.9346 17.8425 44.9346 17.8425C44.9346 17.8425 44.4584 17.8425 44.2204 17.8425C42.8712 17.8425 41.3633 18.3981 41.3633 20.2234C41.3633 21.652 42.3156 21.9694 42.8712 21.9694C43.9823 21.9694 44.4584 21.2552 44.5378 21.2552L44.4584 21.8901H45.887L46.5219 17.5251C46.6012 15.6204 44.9346 15.541 44.3791 15.541ZM44.7759 19.1124C44.7759 19.3504 44.6172 20.6202 43.6648 20.6202C43.1886 20.6202 43.0299 20.2234 43.0299 19.9853C43.0299 19.5885 43.268 19.033 44.4584 19.033C44.6965 19.1124 44.6965 19.1124 44.7759 19.1124Z" fill="white"/>
<path d="M47.871 21.8895C48.3472 19.2706 48.4265 17.1278 49.5376 17.5246C49.6963 16.4928 49.9344 16.096 50.0932 15.6992C50.0932 15.6992 50.0138 15.6992 49.7757 15.6992C49.0614 15.6992 48.5059 16.6516 48.5059 16.6516L48.6646 15.7786H47.1567L46.125 21.9689H47.871V21.8895Z" fill="white"/>
<path d="M24.8516 20.6971C24.8516 21.6494 25.4071 22.0463 26.1214 22.0463C26.6769 22.0463 27.1531 21.8875 27.3118 21.8082L27.5499 20.459C27.4705 20.459 27.3118 20.5384 27.1531 20.5384C26.5975 20.5384 26.5182 20.2209 26.5975 20.0622L27.0737 17.2845H27.9467L28.1848 15.7766H27.3912L27.5499 14.8242" fill="#DCE5E5"/>
<path d="M28.6641 19.2689C28.6641 21.491 29.3783 22.0466 30.6481 22.0466C31.8386 22.0466 32.3148 21.8085 32.3148 21.8085L32.6322 20.3006C32.6322 20.3006 31.7592 20.6974 30.9656 20.6974C29.2196 20.6974 29.5371 19.4276 29.5371 19.4276H32.7909C32.7909 19.4276 33.029 18.3959 33.029 17.9991C33.029 16.9674 32.4735 15.6975 30.7275 15.6975C29.0609 15.5388 28.6641 17.2848 28.6641 19.2689ZM30.6481 16.9674C31.5211 16.9674 31.6799 17.9991 31.6799 18.0784H29.6164C29.6164 17.9991 29.7751 16.9674 30.6481 16.9674Z" fill="#DCE5E5"/>
<path d="M40.7276 21.8076L41.045 20.0616C41.045 20.0616 40.2514 20.4584 39.6959 20.4584C38.5848 20.4584 38.1086 19.5854 38.1086 18.6331C38.1086 16.7284 39.061 15.6966 40.172 15.6966C40.9657 15.6966 41.6006 16.1728 41.6006 16.1728L41.8387 14.5062C41.8387 14.5062 40.8863 14.1094 40.0133 14.1094C38.188 14.1094 37.1562 15.6966 37.1562 18.7124C37.1562 20.6965 37.315 22.0457 39.2197 22.0457C39.8546 22.0457 40.7276 21.8076 40.7276 21.8076Z" fill="#DCE5E5"/>
<path d="M16.4433 17.2865C16.4433 17.2865 17.1576 16.969 18.1893 16.969C18.7448 16.969 19.221 17.0484 19.221 17.5246C19.221 17.842 19.1416 17.9214 19.1416 17.9214C19.1416 17.9214 18.6655 17.9214 18.4274 17.9214C17.0782 17.9214 15.5703 18.4769 15.5703 20.3023C15.5703 21.7308 16.5227 22.0483 17.0782 22.0483C18.1893 22.0483 18.6655 21.334 18.7448 21.334L18.6655 21.9689H20.094L20.7289 17.6039C20.7289 15.7786 19.1416 15.6992 18.5067 15.6992M19.6972 19.1118C19.6972 19.3499 18.7448 20.6197 17.7925 20.6197C17.3163 20.6197 17.1576 20.2229 17.1576 19.9848C17.1576 19.588 17.3957 19.0325 18.5861 19.0325C18.8242 19.1118 19.6972 19.1118 19.6972 19.1118Z" fill="#DCE5E5"/>
<path d="M20.4922 21.808C20.4922 21.808 20.9684 21.9668 22.3175 21.9668C22.7144 21.9668 24.6984 22.0461 24.6984 19.9033C24.6984 17.9192 22.7937 18.3161 22.7937 17.5224C22.7937 17.1256 23.1112 16.9669 23.6667 16.9669C23.9048 16.9669 24.7778 17.0462 24.7778 17.0462L25.0159 15.6177C25.0159 15.6177 24.4603 15.459 23.508 15.459C22.3175 15.459 21.9207 15.9352 21.9207 17.5224C21.9207 19.3478 23.1112 19.189 23.1112 19.9033C23.1112 20.3795 22.5556 20.4589 22.1588 20.4589" fill="#DCE5E5"/>
<path d="M53.5824 16.413C53.5824 16.413 52.9475 15.6194 52.0745 15.6194C50.646 15.6194 50.1698 17.3654 50.1698 19.4288C50.1698 20.6987 50.0111 22.0478 51.3603 22.0478C52.3126 22.0478 52.8682 21.4129 52.8682 21.4129L52.7888 21.9685H54.3761L55.5665 14.3496M53.5031 18.4765C53.5031 19.3495 52.7888 20.4606 51.9158 20.4606C51.3603 20.4606 51.0428 19.9844 51.0428 19.1908C51.0428 17.9209 51.5984 17.1273 52.3126 17.1273C52.8682 17.1273 53.5031 17.5241 53.5031 18.4765Z" fill="#DCE5E5"/>
<path d="M9.93758 21.8864L10.8899 16.1723L11.0487 21.8864H12.1597L14.2232 16.1723L13.3502 21.8864H15.0168L16.2866 14.2676H14.3026L12.0804 18.95L12.001 14.2676H11.128L8.42969 21.8864H9.93758Z" fill="#DCE5E5"/>
<path d="M32.8711 21.8895H34.5377C35.0139 19.2706 35.0933 17.1278 36.2043 17.5246C36.3631 16.4928 36.6012 16.096 36.7599 15.6992C36.7599 15.6992 36.6805 15.6992 36.4424 15.6992C35.7282 15.6992 35.1726 16.6516 35.1726 16.6516L35.3313 15.7786" fill="#DCE5E5"/>
<path d="M42.2363 17.2865C42.2363 17.2865 42.9505 16.969 43.9823 16.969C44.5378 16.969 45.014 17.0484 45.014 17.5246C45.014 17.842 44.9346 17.9214 44.9346 17.9214C44.9346 17.9214 44.4584 17.9214 44.2204 17.9214C42.8712 17.9214 41.3633 18.4769 41.3633 20.3023C41.3633 21.7308 42.3156 22.0483 42.8712 22.0483C43.9823 22.0483 44.4584 21.334 44.5378 21.334L44.4584 21.9689H45.887L46.5219 17.6039C46.5219 15.7786 44.9346 15.6992 44.2997 15.6992M45.4902 19.1118C45.4902 19.3499 44.5378 20.6197 43.5854 20.6197C43.1093 20.6197 42.9505 20.2229 42.9505 19.9848C42.9505 19.588 43.1886 19.0325 44.3791 19.0325C44.6965 19.1118 45.4902 19.1118 45.4902 19.1118Z" fill="#DCE5E5"/>
<path d="M46.2109 21.8895H47.8776C48.3537 19.2706 48.4331 17.1278 49.5442 17.5246C49.7029 16.4928 49.941 16.096 50.0997 15.6992C50.0997 15.6992 50.0204 15.6992 49.7823 15.6992C49.068 15.6992 48.5125 16.6516 48.5125 16.6516L48.6712 15.7786" fill="#DCE5E5"/>
</svg>
