<svg width="204" height="204" viewBox="0 0 204 204" fill="none" xmlns="http://www.w3.org/2000/svg">
<g clip-path="url(#clip0_1591_198)">
<path d="M102 0C76.0905 0.0490095 51.1707 9.95616 32.3 27.71L32.3 19.8333C32.3 17.579 31.4045 15.417 29.8104 13.8229C28.2164 12.2289 26.0543 11.3333 23.8 11.3333C21.5457 11.3333 19.3837 12.2289 17.7896 13.8229C16.1955 15.417 15.3 17.579 15.3 19.8333L15.3 48.875C15.3 51.1293 16.1955 53.2913 17.7896 54.8854C19.3836 56.4795 21.5457 57.375 23.8 57.375L53.5 57.375C55.7543 57.375 57.9163 56.4795 59.5104 54.8854C61.1045 53.2913 62 51.1293 62 48.875C62 46.6207 61.1045 44.4587 59.5104 42.8646C57.9163 41.2705 55.7543 40.375 53.5 40.375L43.605 40.375C57.8249 26.9312 76.2481 18.8056 95.7643 17.37C115.28 15.9344 134.694 21.2768 150.728 32.4952C166.762 43.7136 178.435 60.1209 183.774 78.9472C189.114 97.7736 187.794 117.866 180.038 135.832C172.281 153.798 158.563 168.538 141.2 177.562C123.836 186.587 103.89 189.344 84.7295 185.368C65.5688 181.392 48.3667 170.926 36.0275 155.738C23.6882 140.55 16.9675 121.569 17 102C17 99.7457 16.1045 97.5836 14.5104 95.9896C12.9163 94.3955 10.7543 93.5 8.5 93.5C6.24566 93.5 4.08365 94.3955 2.48959 95.9896C0.895535 97.5836 0 99.7457 0 102C0 122.174 5.98219 141.894 17.1901 158.668C28.398 175.442 44.3282 188.516 62.9663 196.236C81.6043 203.956 102.113 205.976 121.899 202.04C141.685 198.104 159.86 188.39 174.125 174.125C188.39 159.86 198.104 141.685 202.04 121.899C205.976 102.113 203.956 81.6043 196.236 62.9663C188.516 44.3282 175.442 28.398 158.668 17.1901C141.894 5.98219 122.174 0 102 0Z" fill="black"/>
<path d="M101.998 42.8574C69.4698 42.8574 42.8555 69.4717 42.8555 102C42.8555 134.529 69.4698 161.143 101.998 161.143C134.527 161.143 161.141 134.529 161.141 102C161.141 69.4717 134.527 42.8574 101.998 42.8574ZM101.998 141.429C99.0412 141.429 97.0698 139.457 97.0698 136.5V136.007C89.184 134.036 82.7769 127.629 82.284 117.279C82.284 114.322 84.2555 112.35 87.2126 112.35C90.1698 112.35 92.1412 114.322 92.1412 117.279C92.1412 124.672 97.5626 127.136 101.998 127.136C106.434 127.136 111.855 124.672 111.855 117.279C111.855 111.857 107.42 107.422 101.998 107.422C91.1555 107.422 82.284 98.5503 82.284 87.7074C82.7769 76.8646 89.184 70.4574 97.0698 68.486V67.5003C97.0698 64.5431 99.0412 62.5717 101.998 62.5717C104.955 62.5717 106.927 64.5431 106.927 67.5003V67.9931C114.813 69.9646 121.22 76.3717 121.713 86.7217C121.713 89.6789 119.741 91.6503 116.784 91.6503C114.32 91.6503 111.855 89.6789 111.855 86.7217C111.855 79.3289 106.434 76.8646 101.998 76.8646C97.5626 76.8646 92.1412 79.3289 92.1412 86.7217C92.1412 92.1431 96.5769 96.5789 101.998 96.5789C112.841 96.5789 121.713 105.45 121.713 116.293C121.22 127.136 114.813 133.543 106.927 135.515V136.5C106.927 139.457 104.955 141.429 101.998 141.429Z" fill="black"/>
</g>
<defs>
<clipPath id="clip0_1591_198">
<rect width="204" height="204" fill="white"/>
</clipPath>
</defs>
</svg>
