<svg width="36" height="36" viewBox="0 0 36 36" fill="none" xmlns="http://www.w3.org/2000/svg">
<path d="M17.9498 34.9857C16.1118 34.9857 14.2725 35.0228 12.4345 34.9775C11.4354 34.9614 10.4494 34.7408 9.53351 34.3286C8.61763 33.9164 7.79011 33.3208 7.09888 32.5762C6.40766 31.8316 5.86647 30.9528 5.50666 29.9909C5.14686 29.0289 4.9756 28.0028 5.0028 26.972C5.02273 25.7898 5.34568 24.6788 5.82411 23.6104C7.72367 19.3633 9.62057 15.1139 11.5148 10.8623C11.7035 10.4344 11.9135 10.2561 12.3959 10.2588C16.1392 10.2808 19.8825 10.2808 23.6258 10.2588C24.1003 10.2588 24.3196 10.4248 24.5109 10.8568C26.3954 15.1085 28.3118 19.3519 30.199 23.6118C32.6882 29.224 29.1106 34.9802 23.1328 34.9953C21.4051 34.9953 19.6774 34.9953 17.9498 34.9953V34.9857ZM15.6905 24.074C15.5244 24.1536 15.4911 24.3223 15.4247 24.4608C14.6898 25.9132 14.6751 25.9694 16.2008 26.4385C16.8945 26.6524 17.1417 26.9775 17.0288 27.6728C17.0102 27.7839 17.0421 27.9033 17.0288 28.0144C16.9118 28.7001 17.2082 28.8537 17.8262 28.8263C19.0063 28.7755 19.0342 28.8112 18.9996 27.5919C18.9837 27.0433 19.1126 26.8143 19.6748 26.6867C20.9001 26.4124 21.5845 25.5086 21.6151 24.3332C21.6483 23.0125 21.1247 22.265 19.8236 21.8055C19.1339 21.5628 18.4322 21.3557 17.7451 21.1061C17.3863 20.9758 17.1311 20.7275 17.2055 20.2832C17.2773 19.8607 17.6042 19.7757 17.9431 19.7263C18.7538 19.6125 19.4582 19.9321 20.1572 20.2914C20.2901 20.3613 20.4615 20.5904 20.6011 20.3312C20.8562 19.8566 21.2377 19.3711 21.2536 18.8746C21.2629 18.5633 20.5891 18.4632 20.213 18.2712C19.8369 18.0791 19.2615 18.1998 19.0887 17.8199C18.9159 17.44 18.9943 16.9257 19.0196 16.4731C19.0475 15.9862 18.9212 15.7874 18.4003 15.7983C17.0274 15.8162 17.0128 15.7887 17.0341 17.2604C17.0421 17.7733 16.9823 18.1148 16.4547 18.3932C15.5084 18.8938 15.1044 19.7977 15.1509 20.8962C15.1974 21.9948 15.8513 22.5763 16.7656 22.9233C17.4301 23.1757 18.1092 23.3745 18.7737 23.6228C19.1512 23.7599 19.5618 23.9396 19.4807 24.4676C19.3997 24.9957 18.9359 24.9984 18.5505 25.0162C17.4819 25.0478 16.565 24.602 15.6892 24.0713L15.6905 24.074Z" fill="black"/>
<path d="M28.261 0.0561588C28.0484 0.500528 27.8504 0.921581 27.6457 1.33852C26.6118 3.4575 25.5659 5.57099 24.5465 7.6982C24.3671 8.07262 24.1624 8.22898 23.7491 8.22761C19.919 8.20978 16.0889 8.21527 12.2588 8.22761C11.9531 8.22761 11.7272 8.19743 11.5597 7.86141C10.3091 5.26789 9.03464 2.68534 7.77344 0.0918151C8.04588 -0.0659083 8.22131 0.139818 8.40471 0.228966C10.2055 1.04501 12.0076 1.86106 13.7951 2.70866C14.1725 2.88832 14.4184 2.8458 14.7333 2.58248C15.6889 1.7678 16.6829 1.0025 17.6371 0.185081C17.9415 -0.0755057 18.1289 -0.0521921 18.4199 0.200165C19.2651 0.935294 20.1675 1.60459 20.9955 2.36029C21.4859 2.80877 21.8832 2.89381 22.5026 2.58796C24.1757 1.76506 25.8915 1.0217 27.5926 0.256398C27.7786 0.14942 27.954 -0.00830211 28.261 0.0561588Z" fill="black"/>
</svg>
