<svg width="36" height="36" viewBox="0 0 36 36" fill="none" xmlns="http://www.w3.org/2000/svg">
<path d="M30.8766 2.04744C31.3353 2.04744 31.794 2.02622 32.2515 2.04744C33.2951 2.10362 33.9376 2.70285 33.9763 3.73152C34.2513 10.9821 32.1265 17.2952 26.6919 22.315C25.1401 23.7652 23.4225 25.0277 21.5749 26.0764C21.2186 26.2761 21.0112 26.2349 20.7287 25.9516C17.174 22.3837 13.6101 18.8253 10.0371 15.2766C9.73835 14.9795 9.7421 14.7635 9.94083 14.4277C14.1905 7.23449 20.2325 2.79148 28.7568 2.13358C29.4617 2.0799 30.1692 2.04494 30.8816 2L30.8766 2.04744ZM19.2526 12.0782C19.2497 12.6925 19.368 13.3014 19.6007 13.87C19.8334 14.4386 20.176 14.9559 20.6088 15.3923C21.483 16.2736 22.6719 16.772 23.914 16.7778C25.1562 16.7836 26.3497 16.2963 27.2321 15.4232C27.669 14.9908 28.0164 14.4768 28.2544 13.9103C28.4924 13.3439 28.6164 12.7362 28.6193 12.1219C28.6251 10.8813 28.1372 9.68923 27.263 8.80789C26.3888 7.92655 25.1999 7.42817 23.9578 7.42237C22.7157 7.41658 21.5222 7.90385 20.6398 8.77699C19.7573 9.65014 19.2584 10.8376 19.2526 12.0782Z" fill="black"/>
<path d="M15.3152 28.2473C15.0732 28.2547 14.8323 28.2114 14.608 28.1203C14.3837 28.0291 14.181 27.8921 14.0129 27.718L8.27086 21.9817C8.0701 21.7972 7.91908 21.5653 7.8317 21.3072C7.74433 21.0491 7.72341 20.7731 7.77089 20.5048C7.9736 19.3566 8.27811 18.2286 8.68082 17.1342C8.80581 16.7847 8.9158 16.7684 9.18078 17.0293C12.4446 20.3001 15.7119 23.5671 18.9824 26.8304C19.1162 26.964 19.3687 27.1126 18.9724 27.2624C17.7921 27.7201 16.566 28.0503 15.3152 28.2473Z" fill="black"/>
<path d="M25.3626 25.9717C25.2751 26.9879 25.2276 27.9804 25.0901 28.9679C24.9976 29.6308 24.5902 30.1488 24.029 30.5221C22.4353 31.5795 20.8492 32.6444 19.2394 33.6805C18.1257 34.3934 16.8646 33.8653 16.5846 32.5807C16.4258 31.8516 16.3583 31.1039 16.2284 30.3686C16.1821 30.1089 16.2496 29.994 16.5096 29.9354C19.6756 29.2762 22.5091 27.893 25.1339 26.0329C25.2069 26.002 25.2839 25.9814 25.3626 25.9717Z" fill="black"/>
<path d="M10.0035 10.6675C10.0348 10.9172 9.86854 11.0345 9.76605 11.1818C8.03119 13.6786 6.7263 16.3763 6.10385 19.3712C6.03011 19.7307 5.89262 19.8456 5.51765 19.7707C4.86645 19.6459 4.20026 19.5834 3.54657 19.4623C2.14543 19.2002 1.57548 17.9206 2.34417 16.7309C3.35908 15.1604 4.40274 13.6099 5.43766 12.0494C5.65244 11.7032 5.94878 11.4146 6.30085 11.209C6.65292 11.0033 7.05001 10.8869 7.45749 10.8697C8.30867 10.816 9.1561 10.7361 10.0035 10.6675Z" fill="black"/>
<path d="M2.90654 33.9875C2.73517 33.9817 2.56888 33.9279 2.42658 33.8324C2.28428 33.7368 2.17169 33.6033 2.10161 33.447C1.90538 33.0362 2.00412 32.673 2.30534 32.3646C2.85655 31.7991 3.42025 31.2411 3.97896 30.688C5.33134 29.3373 6.67998 27.984 8.03862 26.6383C8.55857 26.1227 9.17728 26.1077 9.54849 26.5946C9.87097 27.019 9.84597 27.4684 9.47725 27.843C7.53158 29.8046 5.57799 31.7583 3.61649 33.7041C3.52346 33.7968 3.41259 33.8697 3.29057 33.9184C3.16855 33.9672 3.03791 33.9906 2.90654 33.9875Z" fill="black"/>
<path d="M2.93247 28.3659C2.76301 28.3609 2.59824 28.3092 2.45624 28.2167C2.31424 28.1243 2.20051 27.9945 2.12753 27.8416C1.94755 27.4871 1.97255 27.125 2.23628 26.8541C3.29243 25.7693 4.35485 24.6869 5.45726 23.6495C5.83222 23.2987 6.32343 23.3537 6.68965 23.7382C7.05587 24.1227 7.08087 24.5971 6.7184 24.9741C5.68349 26.0502 4.61232 27.0963 3.54991 28.1437C3.38153 28.2963 3.15958 28.3762 2.93247 28.3659Z" fill="black"/>
<path d="M8.6558 33.9824C8.21708 33.9425 7.91461 33.7989 7.73713 33.4456C7.55964 33.0923 7.57839 32.7328 7.84462 32.4594C8.90328 31.3758 9.96944 30.2947 11.0643 29.2535C11.4393 28.8953 11.9268 28.9564 12.2955 29.3372C12.643 29.6967 12.6955 30.1736 12.363 30.5244C11.3068 31.638 10.2057 32.7091 9.11326 33.7827C8.98577 33.9025 8.77454 33.9325 8.6558 33.9824Z" fill="black"/>
<path d="M23.9382 14.896C23.568 14.9 23.2007 14.8304 22.8577 14.6912C22.5147 14.5521 22.2029 14.3461 21.9403 14.0854C21.6778 13.8247 21.4698 13.5144 21.3285 13.1726C21.1872 12.8309 21.1154 12.4644 21.1172 12.0947C21.1157 11.5392 21.2792 10.9957 21.5869 10.533C21.8946 10.0703 22.3328 9.70912 22.846 9.49512C23.3593 9.28112 23.9245 9.22393 24.4703 9.33076C25.0161 9.43758 25.5179 9.70363 25.9123 10.0953C26.3067 10.4869 26.576 10.9866 26.6861 11.5311C26.7962 12.0756 26.7422 12.6405 26.5309 13.1543C26.3196 13.6681 25.9605 14.1079 25.499 14.4179C25.0375 14.7279 24.4944 14.8943 23.9382 14.896Z" fill="black"/>
</svg>
