<svg width="204" height="204" viewBox="0 0 204 204" fill="none" xmlns="http://www.w3.org/2000/svg">
<path d="M187.63 52.5094C187.386 47.1426 187.386 42.0197 187.386 36.8969C187.386 32.7498 184.214 29.5785 180.067 29.5785C149.574 29.5785 126.399 20.7964 107.127 2.01256C104.2 -0.670852 99.809 -0.670852 96.8817 2.01256C77.6099 20.7964 54.4351 29.5785 23.9418 29.5785C19.7947 29.5785 16.6234 32.7498 16.6234 36.8969C16.6234 42.0197 16.6234 47.1426 16.3794 52.5094C15.4037 103.738 13.94 173.995 99.5651 203.512L102.005 204L104.444 203.512C189.825 173.995 188.605 103.982 187.63 52.5094ZM96.1499 123.498C94.6862 124.717 92.9786 125.449 91.027 125.449H90.783C88.8315 125.449 86.8799 124.474 85.6602 123.01L62.9732 97.8834L73.9507 88.1256L91.7588 107.885L131.278 70.3175L141.28 81.0511L96.1499 123.498Z" fill="black"/>
<circle cx="101.999" cy="99.9995" r="43.9995" fill="white"/>
<path d="M86.6992 99.9998L96.8998 110.2L118.151 88.9492" stroke="black" stroke-width="10" stroke-linecap="round" stroke-linejoin="round"/>
</svg>
