<svg width="33" height="33" viewBox="0 0 33 33" fill="none" xmlns="http://www.w3.org/2000/svg">
<path opacity="0.15" d="M16.6901 2.49512C9.19447 2.49512 3.09619 8.59175 3.09619 16.0855C3.09619 23.5796 9.19447 29.676 16.6901 29.676C24.1859 29.676 30.2844 23.5796 30.2844 16.0855C30.2842 8.59175 24.1857 2.49512 16.6901 2.49512ZM16.6901 28.3356C9.93369 28.3356 4.43696 22.8403 4.43696 16.0855C4.43696 9.33099 9.93369 3.83553 16.6901 3.83553C23.4464 3.83553 28.9436 9.33099 28.9436 16.0855C28.9434 22.8403 23.4464 28.3356 16.6901 28.3356Z" fill="white"/>
<path d="M18.9447 12.001H19.4607L19.6483 12.0364C19.7656 12.06 19.8789 12.0955 19.9884 12.1427C20.0431 12.1585 20.1213 12.19 20.2229 12.2372L20.2933 12.2726L20.5513 12.438L20.7624 12.6151C20.8171 12.6703 20.9109 12.686 21.0438 12.6624L21.0907 12.6506C21.2471 12.6033 21.3683 12.564 21.4543 12.5325C21.6184 12.4852 21.767 12.4262 21.8999 12.3553C22.0172 12.3081 22.1071 12.2648 22.1696 12.2254L22.2165 12.2018L22.2283 12.19H22.24L22.2517 12.1781H22.2634V12.1663H22.2869V12.19L22.2752 12.2018V12.2254L22.2634 12.2372V12.2608C22.2556 12.2687 22.2517 12.2805 22.2517 12.2963L22.1579 12.497C22.1188 12.5758 22.0445 12.6939 21.9351 12.8514C21.8334 12.9774 21.7514 13.0679 21.6888 13.123C21.6419 13.1624 21.595 13.2057 21.5481 13.2529C21.5168 13.2844 21.4895 13.3081 21.466 13.3238L21.4191 13.3592H21.4074L21.3956 13.3711H21.3839L21.3722 13.3829H21.3605V13.3947H21.3487V13.4065H21.3956L21.6771 13.3474L22.2048 13.2057L22.498 13.0994H22.5214V13.0876H22.5332L22.5449 13.0758H22.5918V13.0994H22.5801V13.1112H22.5683V13.123H22.5566V13.1466H22.5449L22.3924 13.3592C22.3299 13.438 22.2947 13.4774 22.2869 13.4774L22.2634 13.5128C22.2556 13.5285 22.1833 13.6053 22.0465 13.7431C21.9097 13.8809 21.7826 13.9931 21.6654 14.0797C21.5403 14.19 21.4777 14.3159 21.4777 14.4577C21.4777 14.6703 21.4699 14.8356 21.4543 14.9537C21.4465 15.1427 21.423 15.3435 21.3839 15.5561C21.3526 15.7451 21.2979 15.9931 21.2197 16.3002C21.1415 16.56 21.0477 16.8238 20.9383 17.0915C20.8366 17.3435 20.7233 17.5758 20.5982 17.7884C20.52 17.9301 20.4106 18.1073 20.2698 18.3199L20.2112 18.4026C20.1017 18.5443 20.0197 18.6506 19.9649 18.7214C19.8633 18.8474 19.7343 18.9892 19.5779 19.1466L19.3199 19.4065L19.1206 19.5718C19.0502 19.6348 18.929 19.7293 18.757 19.8553C18.6007 19.9655 18.4815 20.0443 18.3994 20.0915C18.3173 20.1388 18.1863 20.2136 18.0065 20.3159C17.9049 20.3711 17.7368 20.4459 17.5022 20.5403C17.3615 20.5955 17.1739 20.6585 16.9393 20.7293C16.7361 20.7923 16.5445 20.8396 16.3647 20.8711C16.224 20.8947 16.0129 20.9222 15.7315 20.9537L15.3796 20.9892V21.001H14.7347V20.9892L14.5705 20.9774L14.1014 20.9183C13.8903 20.8947 13.7027 20.8632 13.5385 20.8238C13.3743 20.7844 13.171 20.7214 12.9287 20.6348C12.6394 20.5325 12.4127 20.438 12.2485 20.3514L11.885 20.1742L11.6387 20.0207H11.627V20.0089H11.6035V19.997H11.5918V19.9734L11.6504 19.9852C11.7286 19.9852 11.8107 19.9892 11.8967 19.997H12.3189C12.5221 19.9813 12.6746 19.9655 12.7762 19.9498C12.9717 19.9183 13.1554 19.8789 13.3274 19.8317C13.4681 19.7923 13.6636 19.7254 13.9138 19.6309L14.289 19.4537C14.375 19.4144 14.4884 19.3435 14.6291 19.2411L14.8519 19.0876L14.8754 19.064H14.8988V19.0403L14.8285 19.0285C14.7581 19.0285 14.7034 19.0266 14.6643 19.0226C14.6252 19.0187 14.5509 19.0049 14.4415 18.9813L14.3946 18.9695C14.2617 18.9222 14.16 18.8829 14.0897 18.8514C13.9568 18.7963 13.8356 18.7333 13.7261 18.6624C13.6167 18.5915 13.5385 18.5325 13.4916 18.4852C13.4681 18.4616 13.429 18.4222 13.3743 18.3671L13.2922 18.2844C13.2219 18.2057 13.1535 18.1151 13.087 18.0128C13.0205 17.9104 12.96 17.8002 12.9052 17.6821L12.8231 17.5049V17.4931L12.8114 17.4695V17.4577L12.9521 17.4695C12.999 17.4774 13.1124 17.4813 13.2922 17.4813L13.6089 17.4695L13.7261 17.4459L13.7379 17.434H13.7965V17.4222L13.7848 17.4104H13.7613L13.7379 17.3986H13.7027C13.6949 17.3907 13.6831 17.3868 13.6675 17.3868L13.3626 17.2687C13.1906 17.1821 13.0772 17.1191 13.0225 17.0797C12.9365 17.0246 12.8544 16.9577 12.7762 16.8789C12.7215 16.8317 12.6394 16.749 12.53 16.6309L12.5182 16.6073C12.4166 16.4813 12.3345 16.3474 12.272 16.2057C12.2016 16.0876 12.1469 15.9459 12.1078 15.7805C12.0765 15.6545 12.0531 15.5167 12.0374 15.3671L12.014 15.1545H12.0257L12.0374 15.1663H12.0492V15.1781H12.0726L12.2251 15.249C12.358 15.312 12.487 15.3514 12.6121 15.3671L12.7059 15.3907C12.8075 15.4144 12.8661 15.4262 12.8818 15.4262L12.9287 15.438H13.0225L13.0108 15.4262V15.4144H12.999L12.9873 15.4026H12.9756L12.9639 15.3907H12.9521V15.3789H12.9404L12.8583 15.3199L12.6941 15.1545L12.5065 14.9419C12.4674 14.8947 12.4166 14.8159 12.3541 14.7057C12.3228 14.6585 12.2759 14.564 12.2133 14.4222L12.2016 14.3868C12.1703 14.3081 12.1312 14.1821 12.0843 14.0089C12.0609 13.875 12.0492 13.7451 12.0492 13.6191C12.0413 13.5561 12.0413 13.4774 12.0492 13.3829V13.3002C12.0648 13.1978 12.0882 13.0955 12.1195 12.9931C12.1352 12.8986 12.1782 12.7766 12.2485 12.627L12.3306 12.438V12.4262L12.3423 12.4144V12.4026H12.3541V12.4144H12.3658V12.4262L12.3775 12.438V12.4498L12.5182 12.5915C12.573 12.6624 12.6785 12.7766 12.8349 12.934C12.96 13.06 13.0284 13.123 13.0401 13.123C13.0518 13.123 13.0655 13.1388 13.0811 13.1703L13.2805 13.3474C13.3821 13.4262 13.5307 13.5325 13.7261 13.6663C13.9059 13.7844 14.1092 13.9065 14.3359 14.0325C14.5392 14.1427 14.7777 14.2529 15.0513 14.3632L15.579 14.5522L16.1067 14.6585C16.396 14.7136 16.5836 14.7451 16.6696 14.7529L16.9276 14.7766H16.998L16.9745 14.623C16.9589 14.5128 16.9511 14.3947 16.9511 14.2687C16.9511 14.1191 16.9628 13.9813 16.9863 13.8553C17.0097 13.7293 17.0449 13.6014 17.0918 13.4714C17.1387 13.3415 17.1856 13.2352 17.2325 13.1526C17.2794 13.0699 17.3342 12.9852 17.3967 12.8986C17.4592 12.812 17.555 12.7116 17.684 12.5974C17.813 12.4833 17.9479 12.3868 18.0886 12.3081C18.1981 12.2372 18.3349 12.1703 18.499 12.1073L18.6046 12.0718C18.7062 12.0482 18.7766 12.0325 18.8157 12.0246L18.886 12.0128C18.9251 12.0128 18.9447 12.0089 18.9447 12.001Z" fill="white"/>
</svg>
