<svg width="204" height="204" viewBox="0 0 204 204" fill="none" xmlns="http://www.w3.org/2000/svg">
<g clip-path="url(#clip0_1591_171)">
<path d="M107.977 18.7266C107.977 15.4254 105.301 12.75 102 12.75C98.6989 12.75 96.0234 15.4254 96.0234 18.7266V44.3324C96.0234 47.6335 98.6989 50.309 102 50.309C105.301 50.309 107.977 47.6335 107.977 44.3324V18.7266Z" fill="black"/>
<path d="M72.1687 54.9617C73.3344 56.1275 74.8644 56.7127 76.3943 56.7127C77.9227 56.7127 79.4526 56.129 80.6199 54.9617C82.953 52.6271 82.953 48.8435 80.6199 46.5089L67.8155 33.706C65.4824 31.3714 61.6988 31.3714 59.3642 33.706C57.0296 36.0406 57.0296 39.8242 59.3642 42.1588L72.1687 54.9617Z" fill="black"/>
<path d="M127.605 56.7111C129.135 56.7111 130.665 56.1275 131.831 54.9602L144.636 42.1573C146.969 39.8242 146.969 36.0391 144.636 33.706C142.301 31.3714 138.517 31.3714 136.183 33.706L123.38 46.5089C121.045 48.8435 121.045 52.6271 123.38 54.9602C124.547 56.1275 126.077 56.7111 127.605 56.7111Z" fill="black"/>
<path d="M84.71 70.4897C84.6477 70.5411 84.5886 70.5909 84.5326 70.6376L58.6933 92.7882C56.2995 94.8395 53.2397 95.971 50.0833 95.971H31.5762C14.1367 95.971 0 110.083 0 127.547V185.17C0 188.469 2.67545 191.146 5.97656 191.146H57.1882C60.4909 191.146 63.1648 188.468 63.1648 185.17V130.304L93.5768 104.236C95.1301 102.905 96.0234 100.961 96.0234 98.9157V75.9698C96.0234 70.1333 89.2438 66.8135 84.71 70.4897Z" fill="black"/>
<path d="M172.424 95.971H153.917C150.76 95.971 147.7 94.8395 145.307 92.7867L119.467 70.6376C119.411 70.5909 119.352 70.5411 119.29 70.4897C114.756 66.8135 107.977 70.1333 107.977 75.9698V98.9157C107.977 100.961 108.87 102.905 110.423 104.236L140.835 130.304V185.168C140.835 188.468 143.509 191.145 146.812 191.145H198.023C201.325 191.145 204 188.469 204 185.168V127.547C204 110.083 189.863 95.971 172.424 95.971Z" fill="black"/>
<path d="M56.7642 70.7884C56.7642 56.9037 45.4679 45.6074 31.5833 45.6074C17.6987 45.6074 6.40234 56.9037 6.40234 70.7884C6.40234 84.6745 17.6987 95.9709 31.5833 95.9709C45.4679 95.9709 56.7642 84.6745 56.7642 70.7884Z" fill="black"/>
<path d="M197.6 70.7884C197.6 56.9037 186.304 45.6074 172.419 45.6074C158.535 45.6074 147.238 56.9037 147.238 70.7884C147.238 84.6745 158.535 95.9709 172.419 95.9709C186.304 95.9709 197.6 84.6745 197.6 70.7884Z" fill="black"/>
</g>
<defs>
<clipPath id="clip0_1591_171">
<rect width="204" height="204" fill="white"/>
</clipPath>
</defs>
</svg>
