<svg width="64" height="36" viewBox="0 0 64 36" fill="none" xmlns="http://www.w3.org/2000/svg">
<path d="M26.743 9L23.8517 26.9921H28.4731L31.3626 9H26.743ZM40.6826 16.329C39.0677 15.5315 38.0777 14.9932 38.0777 14.1776C38.0974 13.4359 38.9149 12.6761 40.7403 12.6761C42.2417 12.6384 43.3453 12.9913 44.1824 13.3423L44.6018 13.5295L45.2301 9.76512C44.3173 9.41228 42.87 9.0235 41.0823 9.0235C36.5186 9.0235 33.3051 11.3963 33.2851 14.7898C33.2474 17.2941 35.5858 18.6838 37.3358 19.5174C39.1236 20.3726 39.7321 20.927 39.7321 21.6868C39.7124 22.8533 38.2866 23.3916 36.9561 23.3916C35.1127 23.3916 34.1225 23.1144 32.6193 22.4644L32.0108 22.1871L31.3645 26.0992C32.4501 26.5818 34.4465 27.0065 36.5188 27.0282C41.3688 27.0282 44.5246 24.6914 44.5643 21.0747C44.5801 19.0907 43.347 17.5711 40.6826 16.329ZM57.0778 9.05568H53.5023C52.4005 9.05568 51.5634 9.37259 51.0863 10.5032L44.2217 26.9921H49.0717L50.4075 23.4222H55.8336L56.5267 27.0065H60.8042L57.0778 9.05568ZM51.7525 19.8195C51.8461 19.8286 53.6141 13.9919 53.6141 13.9919L55.0219 19.8195C55.0219 19.8195 52.6653 19.8195 51.7525 19.8195ZM19.9902 9L15.4624 21.224L14.9692 18.8133C14.132 16.0318 11.5073 13.0092 8.57812 11.5078L12.7242 26.9741H17.6139L24.8799 9.00197H19.9902V9Z" fill="#2394BC"/>
<path d="M13.4462 11.3208C13.0933 9.94891 11.968 9.02365 10.4398 9.00391H3.26916L3.19531 9.33681C8.7889 10.7158 13.4839 14.959 15.007 18.9503L13.4462 11.3208Z" fill="#EFC75E"/>
</svg>
